<svg xmlns="http://www.w3.org/2000/svg" viewBox="0 0 100 100">
    <rect width="100" height="100" rx="12" fill="#079e7b"/>
    <g fill="#ffffff" stroke="#ffffff" stroke-width="2">
        <path d="M 25 35 L 25 65 L 35 65 L 35 55 L 45 55 L 45 65 L 55 65 L 55 55 L 65 55 L 65 65 L 75 65 L 75 35 L 65 35 L 65 45 L 55 45 L 55 35 L 45 35 L 45 45 L 35 45 L 35 35 Z" opacity="0.3"/>
        <rect x="35" y="45" width="30" height="20" fill="#ffffff" opacity="0.9"/>
        <rect x="30" y="40" width="10" height="10" rx="2"/>
        <rect x="60" y="40" width="10" height="10" rx="2"/>
        <rect x="30" y="60" width="10" height="10" rx="2"/>
        <rect x="60" y="60" width="10" height="10" rx="2"/>
    </g>
</svg>
